<?xml version="1.0" encoding="UTF-8"?> <svg xmlns="http://www.w3.org/2000/svg" xmlns:xlink="http://www.w3.org/1999/xlink" version="1.1" width="90" height="85" viewBox="0 0 90 85" fill="none" overflow="hidden"><path d=" M 21.3972 58.541 L 43.0995 58.541 L 43.0995 65.0316 L 21.3972 65.0316 L 21.3972 58.541 Z" fill="#89D9A9"></path><path d=" M 32.2704 21.0603 C 35.0152 21.0605 37.6711 22.0336 39.7662 23.8067 C 41.8614 25.5799 43.2603 28.0383 43.7143 30.7452 C 44.1683 33.4522 43.6482 36.2325 42.2462 38.5922 C 40.8442 40.9519 38.6511 42.7383 36.0566 43.634 L 36.0566 48.1931 L 28.616 48.1931 L 28.616 43.6792 C 25.9992 42.8112 23.7768 41.0399 22.3471 38.6825 C 20.9173 36.3251 20.3736 33.5357 20.8134 30.8139 C 21.2531 28.0922 22.6476 25.6159 24.747 23.8286 C 26.8463 22.0414 29.5134 21.0601 32.2704 21.0603 Z M 32.2704 13.783 C 28.2636 13.7809 24.3599 15.0535 21.1242 17.4167 C 17.8884 19.7799 15.4883 23.1112 14.2711 26.9287 C 13.0538 30.7462 13.0825 34.852 14.3531 38.6521 C 15.6236 42.4522 18.0701 45.7496 21.3387 48.0673 L 21.3387 55.4705 L 43.334 55.4705 L 43.334 47.967 C 46.5687 45.6286 48.9793 42.3252 50.2194 38.5313 C 51.4595 34.7375 51.4655 30.6482 50.2365 26.8507 C 49.0074 23.0532 46.6065 19.7428 43.3787 17.395 C 40.1508 15.0472 36.2619 13.7826 32.2704 13.783 Z" fill="#89D9A9"></path><path d=" M 30.089 0.518555 L 34.4633 0.518555 L 34.4633 9.63101 L 30.089 9.63101 L 30.089 0.518555 Z" fill="#89D9A9"></path><path d=" M 0 29.4272 L 9.11242 29.4272 L 9.11242 33.7996 L 0 33.7996 L 0 29.4272 Z" fill="#89D9A9"></path><path d=" M 55.0721 29.4272 L 64.1845 29.4272 L 64.1845 33.7996 L 55.0721 33.7996 L 55.0721 29.4272 Z" fill="#89D9A9"></path><path d=" M 10.745 7.20565 L 17.2258 13.6117 L 14.1496 16.7233 L 7.6708 10.3153 L 10.745 7.20565 Z" fill="#89D9A9"></path><path d=" M 53.8919 7.20565 L 56.9681 10.3153 L 50.4775 16.7233 L 47.4013 13.6117 L 53.8919 7.20565 Z" fill="#89D9A9"></path><path d=" M 47.6748 84.8886 L 56.2965 76.2995 C 59.6609 78.9293 63.8137 80.3491 68.0841 80.3283 C 74.1042 80.3142 79.7701 77.4815 83.3932 72.6738 C 87.3892 67.3198 89.5565 60.8221 89.5727 54.1417 L 89.5727 38.4297 L 73.8767 38.4297 C 67.1957 38.446 60.698 40.6133 55.3447 44.6093 C 50.5371 48.2329 47.7043 53.8987 47.6904 59.9185 C 47.6651 64.1872 49.0786 68.3395 51.7028 71.7062 L 43.1138 80.328 L 47.6748 84.8886 Z M 54.1209 59.9106 C 54.1209 55.9161 56.0014 52.155 59.1971 49.7583 C 63.4337 46.5861 68.5849 44.8725 73.8774 44.8752 L 83.1274 44.8752 L 83.1274 54.1253 C 83.128 59.4192 81.4115 64.5703 78.2366 68.8057 C 76.2745 71.4242 73.3755 73.1829 70.1465 73.7128 C 66.9181 74.2428 63.6094 73.5037 60.9128 71.6501 L 74.7956 57.7671 L 70.2353 53.2068 L 56.3525 67.0977 C 54.9018 64.9878 54.1234 62.4872 54.1206 59.9265 L 54.1209 59.9106 Z" fill="#003730"></path></svg> 