<?xml version="1.0" encoding="UTF-8"?> <svg xmlns="http://www.w3.org/2000/svg" xmlns:xlink="http://www.w3.org/1999/xlink" version="1.1" width="62" height="71" viewBox="0 0 62 71" fill="none" overflow="hidden"><path d=" M 15.5003 25.9268 L 7.29443 25.9268 L 7.29443 58.7503 L 15.5003 58.7503 L 15.5003 25.9268 Z" fill="#89D9A9"></path><path d=" M 25.7988 25.7373 L 19.5088 25.7373 L 19.5088 58.3373 L 25.7988 58.3373 L 25.7988 25.7373 Z" fill="#003730"></path><path d=" M 38.6259 25.7373 L 32.3359 25.7373 L 32.3359 58.3373 L 38.6259 58.3373 L 38.6259 25.7373 Z" fill="#003730"></path><path d=" M 51.9882 25.7373 L 45.6982 25.7373 L 45.6982 58.3373 L 51.9882 58.3373 L 51.9882 25.7373 Z" fill="#003730"></path><path d=" M 31 0.397461 L 0 13.206 L 0 22.8128 L 62 22.8128 L 62 13.206 L 31 0.397461 Z" fill="#003730"></path><path d=" M 62.0003 62.3975 L 0.912109 62.3975 L 0.912109 70.6033 L 62.0003 70.6033 L 62.0003 62.3975 Z" fill="#003730"></path></svg> 