<?xml version="1.0" encoding="UTF-8"?> <svg xmlns="http://www.w3.org/2000/svg" width="501" height="501" viewBox="0 0 501 501" fill="none"><g clip-path="url(#clip0_631_2)"><path d="M465 238C465 192.314 450.777 147.761 424.305 110.526C397.834 73.291 360.427 45.2206 317.277 30.2114C274.126 15.2022 227.374 13.9988 183.509 26.7683C139.644 39.5377 100.842 65.6465 72.49 101.471C44.1378 137.295 27.6417 181.057 25.2913 226.682C22.941 272.307 34.8531 317.533 59.3741 356.081C83.8951 394.628 119.809 424.586 162.129 441.795C204.45 459.004 251.079 462.611 295.543 452.115L245 238H465Z" fill="#89D9A9"></path><path d="M319.029 466.899C357.466 457.412 392.631 437.728 420.816 409.923C449 382.118 469.158 347.223 479.165 308.917L266.309 253.309L319.029 466.899Z" fill="#FEE678"></path><path d="M481.96 288.837C483.783 279.807 485.037 270.671 485.714 261.484L266.309 245.309L481.96 288.837Z" fill="#D9D9D9"></path></g><defs><clipPath id="clip0_631_2"><rect width="501" height="501" fill="white"></rect></clipPath></defs></svg> 