<?xml version="1.0" encoding="UTF-8"?> <svg xmlns="http://www.w3.org/2000/svg" xmlns:xlink="http://www.w3.org/1999/xlink" version="1.1" width="59" height="76" viewBox="0 0 59 76" fill="none" overflow="hidden"><path d=" M 18.1021 66.5363 C 18.1021 71.5172 14.0395 75.5798 9.05863 75.5798 C 4.06275 75.5798 0 71.5172 0 66.5363 C 0 62.007 7.02694 52.0308 7.82482 50.9174 C 8.11073 50.5113 8.56227 50.2852 9.05852 50.2852 C 9.5403 50.2852 9.99121 50.5106 10.2771 50.9174 C 11.0744 52.0309 18.1019 62.0076 18.1019 66.5363 L 18.1021 66.5363 Z" fill="#89D9A9"></path><path d=" M 8.58203 44.9213 L 8.58203 35.2668 C 8.58203 27.5649 14.8256 21.3213 22.5275 21.3213 L 42.9093 21.3213" stroke="#003730" stroke-width="13.9455"></path><rect x="17.1636" y="0.939453" width="19.3091" height="9.65455" fill="#003730"></rect><rect x="45.0547" y="40.6309" width="36.4727" height="13.9455" fill="#003730" transform="matrix(6.12323e-17,-1,1,6.12323e-17,4.4238,85.6856)"></rect></svg> 