<?xml version="1.0" encoding="UTF-8"?> <svg xmlns="http://www.w3.org/2000/svg" xmlns:xlink="http://www.w3.org/1999/xlink" version="1.1" width="47" height="59" viewBox="0 0 47 59" fill="none" overflow="hidden"><path d=" M 7.79835 0.00121102 C 3.55352 0.00121102 0 3.5552 0 7.79956 L 0 51.9909 C 0 55.5575 2.93208 58.4896 6.49872 58.4896 L 44.8412 58.4896 C 45.862 58.4896 46.7909 57.5607 46.7909 56.5398 L 46.7909 13.6483 C 46.7846 12.5037 45.9564 11.6886 44.8412 11.6986 C 42.9654 11.6986 40.9417 9.67537 40.9417 7.7991 C 40.9417 5.92329 42.9654 3.89963 44.8412 3.89963 C 45.8711 3.91414 46.7909 2.98031 46.7909 1.9499 C 46.7909 0.919968 45.8711 -0.0143394 44.8412 0.000166717 L 7.79835 0.00121102 Z M 7.79835 3.90068 L 38.1184 3.90068 C 37.4375 5.05391 37.0422 6.38853 37.0422 7.80014 C 37.0422 9.21175 37.4379 10.5458 38.1184 11.6996 L 7.79835 11.6996 C 5.92254 11.6996 3.89888 9.67641 3.89888 7.80014 C 3.89888 5.92433 5.92254 3.90068 7.79835 3.90068 Z M 3.89888 14.5218 C 5.05121 15.2009 6.38847 15.598 7.79835 15.598 L 42.8914 15.598 L 42.8914 54.5903 L 6.4986 54.5903 C 5.0249 54.5903 3.89935 53.4647 3.89935 51.991 L 3.89888 14.5218 Z" fill="#003730"></path><rect x="14" y="25" width="21" height="5" fill="#89D9A9"></rect><rect x="14" y="33" width="21" height="4" fill="#89D9A9"></rect><rect x="14" y="40" width="21" height="5" fill="#89D9A9"></rect></svg> 