<?xml version="1.0" encoding="UTF-8"?> <svg xmlns="http://www.w3.org/2000/svg" xmlns:xlink="http://www.w3.org/1999/xlink" version="1.1" width="68" height="71" viewBox="0 0 68 71" fill="none" overflow="hidden"><path d=" M 19.1739 33.6702 C 17.71 46.2599 27.8354 49.6513 33.0811 49.7733 C 29.7875 42.4537 32.349 41.3558 37.4727 33.6702 C 48.0861 18.9806 33.0811 11.7115 28.6892 10.9795 C 34.5449 25.6187 20.2718 24.5207 19.1739 33.6702 Z" fill="#89D9A9"></path><path d=" M 44.7923 27.8145 C 51.8191 41.2826 41.8644 48.0654 36.0088 49.7733 C 35.0329 47.9434 34.4937 44.0846 36.3748 40.6238 C 39.1596 35.5001 41.1325 33.6702 44.7923 27.8145 Z" fill="#89D9A9"></path><path d=" M 61.7798 36.0408 C 58.2277 47.258 50.4024 59.647 33.6847 67.8638 C 21.3013 61.7067 -0.0962435 43.0599 3.16752 12.4608 C 5.97421 11.3855 10.9728 9.03895 12.6825 2.83 L 54.7386 2.83 C 55.6421 6.14998 58.367 10.1146 64.2017 12.4974 C 64.7098 16.7737 64.9774 25.9433 61.7798 36.0408 Z" stroke="#003730" stroke-width="5.66"></path></svg> 