<?xml version="1.0" encoding="UTF-8"?> <svg xmlns="http://www.w3.org/2000/svg" xmlns:xlink="http://www.w3.org/1999/xlink" version="1.1" width="99" height="74" viewBox="0 0 99 74" fill="none" overflow="hidden"><mask maskUnits="userSpaceOnUse" x="0" y="0" width="99" height="74" id="mask0_247_6521"><path d=" M 0 0 L 99 0 L 99 74 L 0 74 L 0 0 Z" fill="#D9D9D9"></path></mask><g mask="url(#mask0_247_6521)"><path d=" M -8.48803 63.6526 C -5.65126 63.4669 -2.97971 61.9323 -0.908384 59.3155 C 1.31839 62.1328 4.1979 63.6754 7.25793 63.6754 C 10.318 63.6754 13.1975 62.1328 15.4242 59.3155 C 17.651 62.1328 20.5305 63.6754 23.5905 63.6754 C 26.6506 63.6754 29.5301 62.1328 31.7569 59.3155 C 33.828 61.9323 36.4996 63.467 39.3365 63.6526 C 42.2029 63.8589 45.0118 62.6364 47.2619 60.2645 L 46.584 59.622 C 44.5288 61.7911 41.9815 62.8905 39.3975 62.7219 C 36.6672 62.5431 34.0874 60.9618 32.1346 58.2685 L 31.757 57.749 L 31.3793 58.2685 C 29.286 61.1543 26.5198 62.7425 23.5907 62.7425 C 20.6616 62.7425 17.8954 61.1543 15.8021 58.2685 L 15.4244 57.749 L 15.0467 58.2685 C 12.9534 61.1543 10.1872 62.7425 7.25813 62.7425 C 4.32905 62.7425 1.56286 61.1543 -0.530488 58.2685 L -0.908151 57.749 L -1.28581 58.2685 C -3.23858 60.9618 -5.8184 62.543 -8.54872 62.7219 C -11.1303 62.8905 -13.6801 61.7912 -15.7352 59.622 L -16.4131 60.2645 C -14.1636 62.6375 -11.3552 63.8567 -8.48768 63.6526 L -8.48803 63.6526 Z" fill="#89D9A9"></path><path d=" M -8.54875 62.7224 C -8.54867 62.7224 -8.54882 62.7224 -8.54875 62.7224 C -8.55039 62.7225 -8.55226 62.7226 -8.5539 62.7227 C -8.57474 62.724 -8.59559 62.7253 -8.61643 62.7265 C -11.173 62.8716 -13.6945 61.7742 -15.7309 59.627 C -15.7323 59.6255 -15.7338 59.6239 -15.7352 59.6224 L -16.4131 60.2649 C -15.6887 61.0291 -14.9063 61.6736 -14.0827 62.1895 C -12.3779 63.2573 -10.4963 63.7738 -8.58593 63.6595 C -8.55331 63.6575 -8.52069 63.6554 -8.48805 63.6531 C -8.48812 63.6531 -8.48799 63.6531 -8.48805 63.6531 C -8.45259 63.6507 -8.4168 63.6482 -8.38139 63.6454 C -6.4774 63.4979 -4.65053 62.7424 -3.03289 61.4599 C -2.79183 61.2688 -2.55542 61.066 -2.3241 60.8517 C -1.82731 60.3916 -1.35397 59.8788 -0.908409 59.3159 C -0.462076 59.8806 0.0104828 60.3941 0.505461 60.8542 C 0.736502 61.069 0.972429 61.2721 1.21285 61.4634 C 3.02711 62.9069 5.09751 63.6758 7.2579 63.6758 C 7.25784 63.6758 7.25797 63.6758 7.2579 63.6758 C 9.41814 63.6758 11.4886 62.9069 13.3028 61.4636 C 13.5433 61.2722 13.7793 61.069 14.0104 60.8541 C 14.5054 60.394 14.9779 59.8806 15.4242 59.3159 C 15.8706 59.8806 16.3432 60.3942 16.8382 60.8543 C 17.0693 61.0691 17.3052 61.2723 17.5457 61.4636 C 19.3599 62.907 21.4302 63.6758 23.5905 63.6758 C 23.5905 63.6758 23.5906 63.6758 23.5905 63.6758 C 25.7509 63.6758 27.8214 62.9069 29.6356 61.4634 C 29.8761 61.2721 30.1121 61.0689 30.3432 60.854 C 30.8381 60.3939 31.3106 59.8805 31.7568 59.3159 C 32.2024 59.8789 32.6758 60.3918 33.1727 60.852 C 33.4039 61.0661 33.6403 61.2689 33.8813 61.46 C 35.5291 62.7664 37.394 63.5259 39.3365 63.6531 C 41.2798 63.7928 43.197 63.2759 44.9312 62.1893 C 45.7542 61.6737 46.536 61.0298 47.26 60.2669 C 47.2606 60.2662 47.2613 60.2656 47.2619 60.2649 L 46.584 59.6224 C 46.5828 59.6236 46.5816 59.6249 46.5804 59.6262 C 44.5273 61.7912 41.9838 62.8892 39.4034 62.7227 C 39.4015 62.7226 39.3995 62.7225 39.3975 62.7224 C 39.3976 62.7224 39.3975 62.7224 39.3975 62.7224 C 37.3655 62.5892 35.4168 61.6793 33.7479 60.1123 C 33.5924 59.9662 33.4392 59.8144 33.2887 59.657 C 33.2855 59.6538 33.2824 59.6505 33.2793 59.6473 C 33.007 59.3619 32.7431 59.0581 32.4888 58.7366 C 32.3686 58.5847 32.2505 58.4288 32.1346 58.269 L 31.757 57.7494 L 31.3793 58.269 C 31.2631 58.4291 31.1449 58.5852 31.0247 58.7372 C 30.7725 59.0564 30.5115 59.3577 30.2425 59.6408 C 30.2388 59.6447 30.2351 59.6486 30.2314 59.6525 C 30.0792 59.8123 29.9245 59.9662 29.7674 60.1142 C 27.9523 61.8241 25.8186 62.7429 23.5907 62.7429 C 23.5907 62.7429 23.5906 62.7429 23.5907 62.7429 C 21.3628 62.7429 19.229 61.824 17.414 60.1142 C 17.2569 59.9662 17.1022 59.8123 16.95 59.6526 C 16.9469 59.6494 16.9439 59.6462 16.9409 59.643 C 16.6712 59.3592 16.4094 59.0571 16.1565 58.7371 C 16.0363 58.5851 15.9182 58.429 15.8021 58.269 L 15.4244 57.7494 L 15.0467 58.269 C 14.9306 58.4291 14.8124 58.5852 14.6922 58.7373 C 14.4393 59.0572 14.1776 59.3593 13.9079 59.643 C 13.9049 59.6462 13.9018 59.6494 13.8988 59.6526 C 13.7466 59.8123 13.5919 59.9662 13.4348 60.1142 C 11.6198 61.8241 9.48606 62.7429 7.25811 62.7429 C 7.25818 62.7429 7.25804 62.7429 7.25811 62.7429 C 5.03024 62.7429 2.89641 61.824 1.08142 60.1142 C 0.924307 59.9662 0.769581 59.8123 0.617388 59.6525 C 0.613674 59.6486 0.609961 59.6447 0.606251 59.6408 C 0.337263 59.3577 0.0762138 59.0563 -0.176094 58.7371 C -0.296246 58.5851 -0.414412 58.429 -0.530512 58.269 L -0.908175 57.7494 L -1.28584 58.269 C -1.40175 58.4288 -1.51986 58.5848 -1.64009 58.7367 C -1.89445 59.0582 -2.15826 59.3619 -2.43056 59.6473 C -2.43365 59.6505 -2.43673 59.6537 -2.43982 59.6569 C -2.5904 59.8144 -2.74357 59.9662 -2.89917 60.1123 C -4.53126 61.6448 -6.43096 62.5488 -8.41454 62.7124 C -8.43892 62.7144 -8.4633 62.7163 -8.48771 62.7181 C -8.48759 62.7181 -8.48782 62.7181 -8.48771 62.7181 C -8.50793 62.7196 -8.52851 62.721 -8.54875 62.7224 Z M 39.5936 59.7288 C 41.1442 59.8297 42.8586 59.1924 44.4063 57.559 L 46.4701 55.3808 L 51.5039 60.1523 L 49.4384 62.3296 C 46.6852 65.2318 43.0413 66.9241 39.131 66.646 C 36.3961 66.4649 33.8813 65.3612 31.7599 63.6008 C 29.4275 65.5429 26.6316 66.6758 23.5905 66.6758 C 20.5508 66.6758 17.756 65.5439 15.4242 63.6033 C 13.0924 65.5439 10.2976 66.6758 7.2579 66.6758 C 4.21684 66.6758 1.42092 65.5429 -0.911526 63.6007 C -3.03174 65.3602 -5.54488 66.4636 -8.27783 66.6457 C -12.1881 66.9229 -15.834 65.2365 -18.5903 62.3288 L -20.6543 60.1515 L -15.6213 55.3807 L -13.5574 57.5591 C -12.0102 59.1922 -10.2934 59.8297 -8.74493 59.7288 M -8.74493 59.7288 C -7.09632 59.6205 -5.26719 58.6493 -3.71461 56.508 L -3.71241 56.5049 L -0.908175 52.6475 L 1.89785 56.5074 C 3.56432 58.8047 5.50247 59.7429 7.25811 59.7429 C 9.01374 59.7429 10.9519 58.8047 12.6184 56.5074 L 12.6202 56.5049 L 15.4244 52.6475 L 18.2304 56.5074 C 19.8969 58.8047 21.835 59.7429 23.5907 59.7429 C 25.3463 59.7429 27.2845 58.8047 28.9509 56.5074 L 28.9527 56.5049 L 31.757 52.6475 L 34.5634 56.508 C 36.1159 58.6493 37.9452 59.6205 39.5936 59.7288" fill="#89D9A9" fill-rule="evenodd" clip-rule="evenodd"></path><path d=" M -8.48803 49.9026 C -5.65126 49.7169 -2.97971 48.1823 -0.908384 45.5655 C 1.31839 48.3828 4.1979 49.9254 7.25793 49.9254 C 10.318 49.9254 13.1975 48.3828 15.4242 45.5655 C 17.651 48.3828 20.5305 49.9254 23.5905 49.9254 C 26.6506 49.9254 29.5301 48.3828 31.7569 45.5655 C 33.828 48.1823 36.4996 49.717 39.3365 49.9026 C 42.2029 50.1089 45.0118 48.8864 47.2619 46.5145 L 46.584 45.872 C 44.5288 48.0411 41.9815 49.1405 39.3975 48.9719 C 36.6672 48.7931 34.0874 47.2118 32.1346 44.5185 L 31.757 43.999 L 31.3793 44.5185 C 29.286 47.4043 26.5198 48.9925 23.5907 48.9925 C 20.6616 48.9925 17.8954 47.4043 15.8021 44.5185 L 15.4244 43.999 L 15.0467 44.5185 C 12.9534 47.4043 10.1872 48.9925 7.25813 48.9925 C 4.32905 48.9925 1.56286 47.4043 -0.530488 44.5185 L -0.908151 43.999 L -1.28581 44.5185 C -3.23858 47.2118 -5.8184 48.793 -8.54872 48.9719 C -11.1303 49.1405 -13.6801 48.0412 -15.7352 45.872 L -16.4131 46.5145 C -14.1636 48.8875 -11.3552 50.1067 -8.48768 49.9026 L -8.48803 49.9026 Z" fill="#89D9A9"></path><path d=" M -8.54875 48.9724 C -8.54867 48.9724 -8.54882 48.9724 -8.54875 48.9724 C -8.55039 48.9725 -8.55226 48.9726 -8.5539 48.9727 C -8.57474 48.974 -8.59559 48.9753 -8.61643 48.9765 C -11.173 49.1216 -13.6945 48.0242 -15.7309 45.877 C -15.7323 45.8755 -15.7338 45.8739 -15.7352 45.8724 L -16.4131 46.5149 C -15.6887 47.2791 -14.9063 47.9236 -14.0827 48.4395 C -12.3779 49.5073 -10.4963 50.0238 -8.58593 49.9095 C -8.55331 49.9075 -8.52069 49.9054 -8.48805 49.9031 C -8.48812 49.9031 -8.48799 49.9031 -8.48805 49.9031 C -8.45259 49.9007 -8.4168 49.8982 -8.38139 49.8954 C -6.4774 49.7479 -4.65053 48.9924 -3.03289 47.7099 C -2.79183 47.5188 -2.55542 47.316 -2.3241 47.1017 C -1.82731 46.6416 -1.35397 46.1288 -0.908409 45.5659 C -0.462076 46.1306 0.0104828 46.6441 0.505461 47.1042 C 0.736502 47.319 0.972429 47.5221 1.21285 47.7134 C 3.02711 49.1569 5.09751 49.9258 7.2579 49.9258 C 7.25784 49.9258 7.25797 49.9258 7.2579 49.9258 C 9.41814 49.9258 11.4886 49.1569 13.3028 47.7136 C 13.5433 47.5222 13.7793 47.319 14.0104 47.1041 C 14.5054 46.644 14.9779 46.1306 15.4242 45.5659 C 15.8706 46.1306 16.3432 46.6442 16.8382 47.1043 C 17.0693 47.3191 17.3052 47.5223 17.5457 47.7136 C 19.3599 49.157 21.4302 49.9258 23.5905 49.9258 C 23.5905 49.9258 23.5906 49.9258 23.5905 49.9258 C 25.7509 49.9258 27.8214 49.1569 29.6356 47.7134 C 29.8761 47.5221 30.1121 47.3189 30.3432 47.104 C 30.8381 46.6439 31.3106 46.1305 31.7568 45.5659 C 32.2024 46.1289 32.6758 46.6418 33.1727 47.102 C 33.4039 47.3161 33.6403 47.5189 33.8813 47.71 C 35.5291 49.0164 37.394 49.7759 39.3365 49.9031 C 41.2798 50.0428 43.197 49.5259 44.9312 48.4393 C 45.7542 47.9237 46.536 47.2798 47.26 46.5169 C 47.2606 46.5162 47.2613 46.5156 47.2619 46.5149 L 46.584 45.8724 C 46.5828 45.8736 46.5816 45.8749 46.5804 45.8762 C 44.5273 48.0412 41.9838 49.1392 39.4034 48.9727 C 39.4015 48.9726 39.3995 48.9725 39.3975 48.9724 C 39.3976 48.9724 39.3975 48.9724 39.3975 48.9724 C 37.3655 48.8392 35.4168 47.9293 33.7479 46.3623 C 33.5924 46.2162 33.4392 46.0644 33.2887 45.907 C 33.2855 45.9038 33.2824 45.9005 33.2793 45.8973 C 33.007 45.6119 32.7431 45.3081 32.4888 44.9866 C 32.3686 44.8347 32.2505 44.6788 32.1346 44.519 L 31.757 43.9994 L 31.3793 44.519 C 31.2631 44.6791 31.1449 44.8352 31.0247 44.9872 C 30.7725 45.3064 30.5115 45.6077 30.2425 45.8908 C 30.2388 45.8947 30.2351 45.8986 30.2314 45.9025 C 30.0792 46.0623 29.9245 46.2162 29.7674 46.3642 C 27.9523 48.0741 25.8186 48.9929 23.5907 48.9929 C 23.5907 48.9929 23.5906 48.9929 23.5907 48.9929 C 21.3628 48.9929 19.229 48.074 17.414 46.3642 C 17.2569 46.2162 17.1022 46.0623 16.95 45.9026 C 16.9469 45.8994 16.9439 45.8962 16.9409 45.893 C 16.6712 45.6092 16.4094 45.3071 16.1565 44.9871 C 16.0363 44.8351 15.9182 44.679 15.8021 44.519 L 15.4244 43.9994 L 15.0467 44.519 C 14.9306 44.6791 14.8124 44.8352 14.6922 44.9873 C 14.4393 45.3072 14.1776 45.6093 13.9079 45.893 C 13.9049 45.8962 13.9018 45.8994 13.8988 45.9026 C 13.7466 46.0623 13.5919 46.2162 13.4348 46.3642 C 11.6198 48.0741 9.48606 48.9929 7.25811 48.9929 C 7.25818 48.9929 7.25804 48.9929 7.25811 48.9929 C 5.03024 48.9929 2.89641 48.074 1.08142 46.3642 C 0.924307 46.2162 0.769581 46.0623 0.617388 45.9025 C 0.613674 45.8986 0.609961 45.8947 0.606251 45.8908 C 0.337263 45.6077 0.0762138 45.3063 -0.176094 44.9871 C -0.296246 44.8351 -0.414412 44.679 -0.530512 44.519 L -0.908175 43.9994 L -1.28584 44.519 C -1.40175 44.6788 -1.51986 44.8348 -1.64009 44.9867 C -1.89445 45.3082 -2.15826 45.6119 -2.43056 45.8973 C -2.43365 45.9005 -2.43673 45.9037 -2.43982 45.9069 C -2.5904 46.0644 -2.74357 46.2162 -2.89917 46.3623 C -4.53126 47.8948 -6.43096 48.7988 -8.41454 48.9624 C -8.43892 48.9644 -8.4633 48.9663 -8.48771 48.9681 C -8.48759 48.9681 -8.48782 48.9681 -8.48771 48.9681 C -8.50793 48.9696 -8.52851 48.971 -8.54875 48.9724 Z M 39.5936 45.9788 C 41.1442 46.0797 42.8586 45.4424 44.4063 43.809 L 46.4701 41.6308 L 51.5039 46.4023 L 49.4384 48.5796 C 46.6852 51.4818 43.0413 53.1741 39.131 52.896 C 36.3961 52.7149 33.8813 51.6112 31.7599 49.8508 C 29.4275 51.7929 26.6316 52.9258 23.5905 52.9258 C 20.5508 52.9258 17.756 51.7939 15.4242 49.8533 C 13.0924 51.7939 10.2976 52.9258 7.2579 52.9258 C 4.21684 52.9258 1.42092 51.7929 -0.911526 49.8507 C -3.03174 51.6102 -5.54488 52.7136 -8.27783 52.8957 C -12.1881 53.1729 -15.834 51.4865 -18.5903 48.5788 L -20.6543 46.4015 L -15.6213 41.6307 L -13.5574 43.8091 C -12.0102 45.4422 -10.2934 46.0797 -8.74493 45.9788 M -8.74493 45.9788 C -7.09632 45.8705 -5.26719 44.8993 -3.71461 42.758 L -3.71241 42.7549 L -0.908175 38.8975 L 1.89785 42.7574 C 3.56432 45.0547 5.50247 45.9929 7.25811 45.9929 C 9.01374 45.9929 10.9519 45.0547 12.6184 42.7574 L 12.6202 42.7549 L 15.4244 38.8975 L 18.2304 42.7574 C 19.8969 45.0547 21.835 45.9929 23.5907 45.9929 C 25.3463 45.9929 27.2845 45.0547 28.9509 42.7574 L 28.9527 42.7549 L 31.757 38.8975 L 34.5634 42.758 C 36.1159 44.8993 37.9452 45.8705 39.5936 45.9788" fill="#89D9A9" fill-rule="evenodd" clip-rule="evenodd"></path><path d=" M 31.0709 27.8515 C 31.0102 27.8341 30.9497 27.8121 30.8907 27.7846 C 30.2566 27.4939 29.9782 26.7437 30.2695 26.1097 C 31.7873 22.8016 33.9616 19.8082 36.7335 17.2124 C 39.4343 14.6831 42.5899 12.6342 46.1126 11.1217 C 53.4161 7.98636 61.6733 7.47278 69.3623 9.67537 C 77.1755 11.9135 83.9526 16.6981 88.4433 23.1481 C 92.9057 29.556 94.767 37.0689 93.6844 44.3028 C 93.5811 44.993 92.9382 45.4681 92.248 45.3648 C 91.5584 45.2617 91.0827 44.6186 91.186 43.9285 C 93.2624 30.0578 83.5802 16.3766 68.666 12.1043 C 54.1972 7.95955 38.3401 14.5744 32.5656 27.1631 C 32.3018 27.738 31.6606 28.0207 31.0708 27.8517 L 31.0709 27.8515 Z" fill="#003730"></path><path d=" M 31.0707 27.8522 C 31.071 27.8524 31.0714 27.8525 31.0718 27.8526 C 31.3431 27.93 31.6252 27.9119 31.8764 27.8138 C 32.171 27.6988 32.4231 27.4737 32.5654 27.1636 C 38.3399 14.5749 54.197 7.96004 68.6658 12.1048 C 83.58 16.3771 93.2622 30.0583 91.1858 43.929 C 91.0825 44.6191 91.5582 45.2622 92.2478 45.3653 C 92.938 45.4686 93.5809 44.9935 93.6841 44.3033 C 94.7668 37.0694 92.9055 29.5564 88.4431 23.1486 C 83.9524 16.6986 77.1753 11.914 69.3621 9.67587 C 61.6731 7.47327 53.4159 7.98686 46.1124 11.1222 C 42.5897 12.6347 39.434 14.6836 36.7333 17.2129 C 33.9614 19.8087 31.7871 22.8021 30.2693 26.1102 C 30.0207 26.6511 30.1869 27.2766 30.6348 27.6292 C 30.6351 27.6294 30.6355 27.6297 30.6358 27.6299 C 30.7126 27.6903 30.7977 27.7426 30.8905 27.7851 C 30.9491 27.8124 31.0093 27.8344 31.0696 27.8517 C 31.0699 27.8518 31.0703 27.8519 31.0707 27.852 C 31.0707 27.852 31.0707 27.852 31.0707 27.852 L 31.0706 27.8522 C 31.0706 27.8522 31.0707 27.8522 31.0707 27.8522 Z M 30.1422 28.1305 L 30.0602 28.2909 L 30.8779 28.5252 C 31.7954 28.788 32.7915 28.3493 33.2016 27.4555 L 33.2017 27.4554 C 38.814 15.2202 54.2937 8.7159 68.473 12.7777 C 83.1035 16.9688 92.51 30.3551 90.4935 43.8254 L 90.4935 43.8254 C 90.3331 44.8977 91.0721 45.8973 92.1443 46.0576 C 93.2164 46.218 94.2159 45.4797 94.3764 44.4069 C 95.4874 36.9835 93.5745 29.2922 89.0176 22.7485 C 84.4314 16.1615 77.5171 11.2838 69.5548 9.00294 C 61.7119 6.75623 53.289 7.27956 45.8363 10.4789 L 45.8362 10.479 C 42.2417 12.0224 39.017 14.1151 36.2548 16.702 C 33.4195 19.3571 31.1905 22.4239 29.6332 25.818 M 36.2548 16.702 L 36.7306 17.21 L 36.2548 16.702 Z M 29.633 25.8183 C 29.258 26.6349 29.4909 27.5751 30.1422 28.1305 Z" fill="#003730" fill-rule="evenodd" clip-rule="evenodd"></path><path d=" M 67.7593 43.8171 L 67.7582 43.8167 C 67.2694 43.6761 66.9122 43.2564 66.8527 42.7514 C 66.5065 39.8278 64.436 37.4093 61.5775 36.5904 C 58.719 35.7716 55.6821 36.7264 53.8403 39.0238 C 53.5217 39.4212 52.9965 39.5881 52.507 39.4479 C 52.0174 39.3076 51.6603 38.8874 51.6004 38.3822 C 51.2541 35.4586 49.1836 33.0401 46.3251 32.2212 C 43.464 31.4016 40.4249 32.3558 38.5831 34.6532 C 38.2645 35.0506 37.7392 35.2175 37.2497 35.0773 C 36.7602 34.937 36.4031 34.5168 36.3431 34.0116 C 35.9969 31.088 33.9264 28.6695 31.0679 27.8506 C 30.3973 27.6585 30.0094 26.9591 30.2015 26.2885 C 30.3936 25.6179 31.093 25.23 31.7636 25.4221 C 33.6695 25.968 35.3467 27.0532 36.6147 28.5608 C 37.3402 29.4233 37.9057 30.3918 38.2953 31.4273 C 39.1741 30.7552 40.1672 30.2332 41.2392 29.8856 C 43.1131 29.278 45.1126 29.246 47.0202 29.7925 C 48.9261 30.3385 50.6033 31.4236 51.8712 32.9312 C 52.5967 33.7937 53.1622 34.7622 53.5518 35.7977 C 54.4307 35.1256 55.4231 34.6038 56.4953 34.2558 C 58.3686 33.648 60.3665 33.6157 62.2724 34.1616 C 65.3374 35.0397 67.7282 37.2907 68.8057 40.1657 C 71.2447 38.2981 74.4662 37.6547 77.5291 38.5321 C 79.4351 39.0781 81.1122 40.1633 82.3802 41.6708 C 83.1057 42.5333 83.6712 43.5018 84.061 44.5368 C 84.9398 43.8647 85.9322 43.3429 87.0042 42.9954 C 88.8776 42.3877 90.8755 42.3553 92.7814 42.9013 C 93.452 43.0934 93.8399 43.7928 93.6478 44.4634 C 93.4558 45.134 92.7563 45.5219 92.0857 45.3298 C 89.2272 44.511 86.1904 45.4658 84.3485 47.7633 C 84.03 48.1606 83.5047 48.3275 83.0152 48.1873 C 82.5257 48.047 82.1686 47.6268 82.1086 47.1216 C 81.7624 44.198 79.6919 41.7795 76.8334 40.9606 C 73.976 40.1421 70.9373 41.097 69.0904 43.3936 C 68.7726 43.7906 68.2475 43.9569 67.7591 43.817 L 67.7593 43.8171 Z" fill="#003730"></path><path d=" M 67.8422 43.841 C 67.8113 43.8322 67.7807 43.8222 67.7506 43.8107 C 67.0961 43.5686 66.7623 42.8419 67.0049 42.1875 C 68.8854 37.1074 70.1885 31.1762 70.6726 25.4874 C 70.8978 22.8419 70.9274 20.3387 70.7578 18.2482 C 70.5897 16.1753 70.2264 14.4927 69.7076 13.3821 C 69.3807 12.6825 68.9937 12.2232 68.6174 12.0891 C 68.3029 11.9767 67.8318 12.1878 67.5785 12.3229 C 65.6687 13.3461 63.0111 16.8105 60.4698 21.5904 C 57.7979 26.6156 55.4775 32.6579 54.1034 38.1677 C 53.9348 38.8444 53.249 39.2562 52.5723 39.0876 C 51.8948 38.9176 51.4837 38.2332 51.6524 37.5565 C 53.0744 31.8552 55.4754 25.6032 58.2398 20.4043 C 59.8904 17.3002 63.1437 11.8325 66.3864 10.0956 C 67.4909 9.50395 68.5277 9.37393 69.4669 9.70925 C 70.5132 10.0823 71.3649 10.9586 71.997 12.3129 C 73.2698 15.0385 73.6933 19.7931 73.1897 25.7018 C 72.6863 31.6116 71.3311 37.7778 69.3736 43.0652 C 69.1422 43.6887 68.4709 44.0214 67.8421 43.8413 L 67.8422 43.841 Z" fill="#003730"></path><path d=" M 68.5973 12.0857 C 67.9267 11.8936 67.5387 11.1942 67.7308 10.5236 L 69.6126 3.95452 C 69.8047 3.28396 70.5042 2.89599 71.1747 3.08808 C 71.8453 3.28017 72.2333 3.97965 72.0412 4.65021 L 70.1594 11.2193 C 69.9673 11.8899 69.2678 12.2778 68.5973 12.0857 Z" fill="#003730"></path><path d=" M 83.0164 48.1873 C 82.361 47.9995 81.9708 47.3223 82.1417 46.658 L 83.4392 41.6208 C 85.9342 27.9168 79.5822 15.2314 68.6519 12.1003 C 58.0464 9.06221 45.631 16.6113 40.3674 29.2929 L 38.8044 34.2434 C 38.5944 34.9088 37.8861 35.2784 37.2198 35.0676 C 36.5543 34.8576 36.1857 34.1479 36.3956 33.483 L 37.9754 28.4798 C 37.9864 28.4454 37.9985 28.4113 38.0123 28.3777 C 39.3824 25.063 41.2322 22.0067 43.511 19.2937 C 45.7454 16.6332 48.301 14.41 51.1065 12.6843 C 56.9993 9.05976 63.4776 7.99037 69.3478 9.67196 C 75.3086 11.3795 80.2718 15.6913 83.3219 21.8131 C 86.3007 27.7913 87.2223 35.0032 85.917 42.1213 C 85.9114 42.1508 85.905 42.1794 85.8979 42.2085 L 84.589 47.2893 C 84.4148 47.965 83.7265 48.3714 83.0508 48.1972 C 83.0391 48.195 83.0277 48.1917 83.0169 48.1886 L 83.0164 48.1873 Z" fill="#003730"></path><path d=" M 58.7876 39.0674 L 63.5943 40.4443 L 57 66.9461 L 50.8014 66.9461 L 58.7876 39.0674 Z" fill="#003730"></path></g></svg> 